<svg xmlns="http://www.w3.org/2000/svg" viewBox="0 0 489 409.61"><defs><style>.cls-1{fill:#ed1c23;}.cls-2{fill:#fff;}</style></defs><title>Asset 2</title><g id="Layer_2" data-name="Layer 2"><g id="Layer_1-2" data-name="Layer 1"><polygon class="cls-1" points="326.22 243.5 327.56 364.25 300.83 391.38 300.87 391.6 301.43 391.05 301.54 391.6 302.1 391.05 302.21 391.6 302.77 391.05 302.87 391.6 303.43 391.05 303.54 391.6 304.1 391.05 304.21 391.6 304.77 391.05 304.87 391.6 305.44 391.05 305.54 391.6 306.1 391.05 306.21 391.6 306.77 391.05 306.88 391.6 307.44 391.05 307.54 391.6 308.1 391.05 308.21 391.6 308.77 391.05 308.88 391.6 309.44 391.05 309.54 391.6 310.11 391.05 310.21 391.6 310.77 391.05 310.88 391.6 311.44 391.05 311.55 391.6 312.11 391.05 312.21 391.6 312.77 391.05 312.88 391.6 313.44 391.05 313.55 391.6 314.11 391.05 314.21 391.6 314.77 391.05 314.88 391.6 315.44 391.05 315.55 391.6 316.11 391.05 316.22 391.6 316.78 391.05 316.88 391.6 317.44 391.05 317.55 391.6 318.11 391.05 318.22 391.6 318.78 391.05 318.88 391.6 319.44 391.05 319.55 391.6 320.11 391.05 320.22 391.6 320.78 391.05 320.88 391.6 321.45 391.05 321.55 391.6 322.11 391.05 322.22 391.6 322.78 391.05 322.89 391.6 323.45 391.05 323.55 391.6 324.11 391.05 324.22 391.6 324.78 391.05 324.89 391.6 325.45 391.05 325.56 391.6 326.12 391.05 326.22 391.6 326.78 391.05 326.89 391.6 327.45 391.05 327.56 391.6 328.12 391.05 328.22 391.6 328.78 391.05 328.89 391.6 329.45 391.05 329.56 391.6 330.12 391.05 330.23 391.6 330.79 391.05 330.89 391.6 331.45 391.05 331.56 391.6 332.12 391.05 332.23 391.6 332.79 391.05 332.89 391.6 333.45 391.05 333.56 391.6 334.12 391.05 334.23 391.6 334.79 391.05 334.89 391.6 335.45 391.05 335.56 391.6 336.12 391.05 336.23 391.6 336.79 391.05 336.9 391.6 337.46 391.05 337.56 391.6 338.12 391.05 338.23 391.6 338.79 391.05 338.9 391.6 339.46 391.05 339.56 391.6 340.13 391.05 340.23 391.6 340.79 391.05 340.9 391.6 341.46 391.05 341.57 391.6 342.13 391.05 342.23 391.6 342.79 391.05 342.9 391.6 343.46 391.05 343.57 391.6 344.13 391.05 344.24 391.6 344.8 391.05 344.9 391.6 345.46 391.05 345.57 391.6 346.13 391.05 346.24 391.6 346.8 391.05 346.9 391.6 347.46 391.05 347.57 391.6 348.13 391.05 348.24 391.6 348.8 391.05 348.9 391.6 349.46 391.05 349.57 391.6 350.13 391.05 350.24 391.6 350.8 391.05 350.91 391.6 351.47 391.05 351.57 391.6 352.13 391.05 352.24 391.6 352.8 391.05 352.91 391.6 353.47 391.05 353.57 391.6 354.13 391.05 354.24 391.6 354.8 391.05 354.91 391.6 355.47 391.05 355.58 391.6 356.14 391.05 356.24 391.6 356.8 391.05 356.91 391.6 357.47 391.05 357.58 391.6 358.14 391.05 358.24 391.6 358.81 391.05 358.91 391.6 359.47 391.05 359.58 391.6 360.14 391.05 360.25 391.6 360.81 391.05 360.91 391.6 361.47 391.05 361.58 391.6 362.14 391.05 362.25 391.6 362.81 391.05 362.91 391.6 363.47 391.05 363.58 391.6 364.14 391.05 364.25 391.6 364.81 391.05 364.92 391.6 365.48 391.05 365.58 391.6 366.14 391.05 366.25 391.6 366.81 391.05 366.92 391.6 367.48 391.05 367.58 391.6 368.14 391.05 368.25 391.6 368.81 391.05 368.92 391.6 369.48 391.05 369.58 391.6 370.15 391.05 370.25 391.6 370.81 391.05 370.92 391.6 371.48 391.05 371.59 391.6 372.15 391.05 372.25 391.6 372.81 391.05 372.92 391.6 373.48 391.05 373.59 391.6 374.15 391.05 374.25 391.6 374.81 391.05 374.92 391.6 375.48 391.05 375.59 391.6 376.15 391.05 376.26 391.6 376.82 391.05 376.92 391.6 377.48 391.05 377.59 391.6 378.15 391.05 378.26 391.6 378.82 391.05 378.93 391.6 379.49 391.05 379.59 391.6 380.15 391.05 380.26 391.6 380.82 391.05 380.93 391.6 381.49 391.05 381.59 391.6 382.15 391.05 382.26 391.6 382.82 391.05 382.93 391.6 383.49 391.05 383.6 391.6 384.15 391.05 384.26 391.6 384.82 391.05 384.93 391.6 385.49 391.05 385.6 391.6 386.16 391.05 386.26 391.6 386.82 391.05 386.93 391.6 387.49 391.05 387.6 391.6 388.16 391.05 388.26 391.6 388.82 391.05 388.93 391.6 389.49 391.05 389.6 391.6 390.16 391.05 390.27 391.6 390.83 391.05 390.93 391.6 391.49 391.05 391.6 391.6 392.16 391.05 392.27 391.6 392.83 391.05 392.94 391.6 393.5 391.05 393.6 391.6 394.16 391.05 394.27 391.6 394.83 391.05 394.94 391.6 395.5 391.05 395.6 391.6 396.16 391.05 396.27 391.6 396.83 391.05 396.94 391.6 397.5 391.05 397.6 391.6 398.17 391.05 398.27 391.6 398.83 391.05 398.94 391.6 399.5 391.05 399.61 391.6 400.17 391.05 400.27 391.6 400.83 391.05 400.94 391.6 401.5 391.05 401.61 391.6 402.17 391.05 402.27 391.6 402.83 391.05 402.94 391.6 403.5 391.05 403.61 391.6 404.17 391.05 404.28 391.6 404.84 391.05 404.94 391.6 405.5 391.05 405.61 391.6 406.17 391.05 406.28 391.6 406.84 391.05 406.94 391.6 407.5 391.05 407.61 391.6 408.17 391.05 408.28 391.6 408.84 391.05 408.94 391.6 409.51 391.05 409.61 391.6 410.17 391.05 410.28 391.6 410.84 391.05 410.95 391.6 411.51 391.05 411.61 391.6 412.17 391.05 412.28 391.6 412.84 391.05 412.95 391.6 413.51 391.05 413.62 391.6 414.18 391.05 414.28 391.6 414.84 391.05 414.95 391.6 415.51 391.05 415.62 391.6 416.18 391.05 416.28 391.6 416.84 391.05 416.95 391.6 417.51 391.05 417.62 391.6 418.18 391.05 418.29 391.6 418.85 391.05 418.95 391.6 419.51 391.05 419.62 391.6 420.18 391.05 420.29 391.6 420.85 391.05 420.95 391.6 421.51 391.05 421.62 391.6 422.18 391.05 422.29 391.6 422.85 391.05 422.95 391.6 423.51 391.05 423.62 391.6 424.18 391.05 424.29 391.6 424.85 391.05 424.96 391.6 425.52 391.05 425.62 391.6 426.18 391.05 426.29 391.6 426.85 391.05 426.96 391.6 427.52 391.05 427.63 391.6 428.19 391.05 428.29 391.6 428.85 391.05 400.94 246.17 326.22 243.5"/><polygon class="cls-1" points="300.2 0 299.54 0 298.87 0 298.2 0 297.54 0 296.87 0 296.2 0 295.54 0 294.87 0 294.2 0 293.53 0 292.87 0 292.2 0 291.53 0 290.87 0 290.2 0 289.53 0 288.86 0 288.2 0 287.53 0 286.86 0 286.19 0 285.53 0 284.86 0 284.19 0 283.53 0 282.86 0 282.19 0 281.52 0 280.86 0 280.19 0 279.52 0 278.86 0 278.19 0 277.52 0 276.86 0 276.19 0 275.52 0 274.85 0 274.19 0 273.52 0 272.85 0 272.19 0 271.52 0 270.85 0 270.18 0 269.52 0 268.85 0 268.18 0 267.52 0 266.85 0 266.18 0 265.51 0 264.85 0 264.18 0 263.51 0 262.85 0 262.18 0 261.51 0 260.84 0 260.18 0 259.51 0 258.84 0 258.18 0 257.51 0 256.84 0 256.18 0 255.51 0 254.84 0 254.17 0 253.51 0 252.84 0 252.17 0 251.5 0 250.84 0 250.17 0 249.5 0 248.84 0 248.17 0 247.5 0 246.84 0 246.17 0 245.5 0 244.83 0 244.17 0 243.5 0 242.83 0 242.16 0 241.5 0 240.83 0 240.16 0 239.5 0 238.83 0 238.16 0 237.5 0 236.83 0 236.16 0 235.49 0 234.83 0 234.16 0 233.49 0 232.82 0 232.16 0 231.49 0 230.82 0 230.16 0 229.49 0 228.82 0 228.16 0 227.49 0 226.82 0 226.15 0 225.49 0 224.82 0 224.15 0 223.49 0 222.82 0 222.15 0 221.48 0 220.82 0 220.15 0 219.48 0 218.82 0 218.15 0 217.48 0 216.81 0 216.15 0 215.48 0 214.81 0 214.15 0 213.48 0 212.81 0 212.15 0 211.48 0 210.81 0 210.14 0 209.48 0 208.81 0 208.14 0 207.47 0 206.81 0 206.14 0 205.47 0 204.81 0 204.14 0 203.47 0 202.81 0 202.14 0 201.47 0 200.8 0 200.14 0 199.47 0 198.8 0 198.13 0 197.47 0 196.8 0 196.13 0 195.47 0 194.8 0 194.13 0 193.47 0 192.8 0 192.13 0 191.46 0 190.8 0 190.13 0 189.46 0 188.79 0 188.13 0 187.46 0 186.79 0 186.13 0 185.46 0 184.79 0 184.13 0 183.46 0 182.79 0 182.12 0 181.46 0 180.79 0 180.12 0 179.46 0 178.79 0 178.12 0 177.45 0 176.79 0 176.12 0 175.45 0 174.79 0 174.12 0 173.45 0 172.78 0 172.12 0 171.45 0 170.78 0 170.12 0 169.45 0 168.78 0 168.12 0 167.45 0 166.78 0 166.11 0 165.45 0 164.78 0 164.11 0 163.44 0 162.78 0 162.11 0 161.44 0 160.78 0 160.11 0 159.44 0 158.78 0 0 160.11 141.43 409.61 141.85 409.18 142.1 409.61 142.52 409.18 142.76 409.61 143.19 409.18 143.43 409.61 143.85 409.18 144.1 409.61 144.52 409.18 144.76 409.61 145.19 409.18 145.43 409.61 145.86 409.18 146.1 409.61 146.52 409.18 146.77 409.61 147.19 409.18 147.43 409.61 147.86 409.18 148.1 409.61 148.52 409.18 148.77 409.61 149.19 409.18 149.44 409.61 149.86 409.18 150.1 409.61 150.53 409.18 150.77 409.61 151.19 409.18 151.44 409.61 151.86 409.18 152.1 409.61 152.53 409.18 152.77 409.61 153.19 409.18 153.44 409.61 153.86 409.18 154.1 409.61 154.53 409.18 154.77 409.61 155.2 409.18 155.44 409.61 155.86 409.18 156.11 409.61 156.53 409.18 156.77 409.61 157.2 409.18 157.44 409.61 157.86 409.18 158.11 409.61 158.53 409.18 158.78 409.61 159.2 409.18 159.44 409.61 159.87 409.18 160.11 409.61 160.53 409.18 160.78 409.61 161.2 409.18 161.44 409.61 161.87 409.18 162.11 409.61 162.53 409.18 162.78 409.61 163.2 409.18 163.44 409.61 163.87 409.18 164.11 409.61 164.53 409.18 164.78 409.61 165.2 409.18 165.45 409.61 165.87 409.18 166.11 409.61 166.54 409.18 166.78 409.61 167.2 409.18 167.45 409.61 167.87 409.18 168.12 409.61 168.54 409.18 168.78 409.61 169.21 409.18 169.45 409.61 169.87 409.18 170.12 409.61 170.54 409.18 170.78 409.61 171.21 409.18 171.45 409.61 171.87 409.18 172.12 409.61 172.54 409.18 172.78 409.61 173.21 409.18 173.45 409.61 173.88 409.18 174.12 409.61 174.54 409.18 174.79 409.61 175.21 409.18 175.45 409.61 175.88 409.18 176.12 409.61 176.54 409.18 176.79 409.61 177.21 409.18 177.45 409.61 177.88 409.18 178.12 409.61 178.54 409.18 178.79 409.61 179.21 409.18 179.46 409.61 179.88 409.18 180.12 409.61 180.55 409.18 180.79 409.61 181.21 409.18 181.46 409.61 181.88 409.18 182.12 409.61 182.55 409.18 182.79 409.61 183.22 409.18 183.46 409.61 183.88 409.18 184.13 409.61 184.55 409.18 184.79 409.61 185.22 409.18 185.46 409.61 185.88 409.18 186.13 409.61 186.55 409.18 186.79 409.61 187.22 409.18 187.46 409.61 187.88 409.18 188.13 409.61 188.55 409.18 188.79 409.61 189.22 409.18 189.46 409.61 189.89 409.18 190.13 409.61 190.55 409.18 190.8 409.61 191.22 409.18 191.46 409.61 191.89 409.18 192.13 409.61 192.55 409.18 192.8 409.61 193.22 409.18 193.47 409.61 193.89 409.18 194.13 409.61 194.56 409.18 194.8 409.61 195.22 409.18 195.47 409.61 195.89 409.18 196.13 409.61 196.56 409.18 196.8 409.61 197.22 409.18 197.47 409.61 197.89 409.18 198.13 409.61 198.56 409.18 198.8 409.61 199.23 409.18 199.47 409.61 199.89 409.18 200.14 409.61 200.56 409.18 200.8 409.61 201.23 409.18 201.47 409.61 201.89 409.18 202.14 409.61 202.56 409.18 202.81 409.61 203.23 409.18 203.47 409.61 203.9 409.18 204.14 409.61 204.56 409.18 204.81 409.61 205.23 409.18 205.47 409.61 205.9 409.18 206.14 409.61 206.56 409.18 206.81 409.61 207.23 409.18 207.47 409.61 207.9 409.18 208.14 409.61 208.56 409.18 208.81 409.61 209.23 409.18 209.48 409.61 209.9 409.18 210.14 409.61 210.57 409.18 210.81 409.61 211.23 409.18 211.48 409.61 211.9 409.18 212.15 409.61 212.57 409.18 212.81 409.61 213.24 409.18 213.48 409.61 213.9 409.18 214.15 409.61 214.57 409.18 214.81 409.61 215.24 409.18 215.48 409.61 215.9 409.18 216.15 409.61 216.57 409.18 216.81 409.61 217.24 409.18 217.48 409.61 217.91 409.18 218.15 409.61 218.57 409.18 218.82 409.61 219.24 409.18 219.48 409.61 219.91 409.18 220.15 409.61 220.57 409.18 220.82 409.61 221.24 409.18 221.48 409.61 221.91 409.18 222.15 409.61 222.57 409.18 222.82 409.61 223.24 409.18 223.49 409.61 223.91 409.18 224.15 409.61 224.58 409.18 224.82 409.61 225.24 409.18 225.49 409.61 225.91 409.18 226.15 409.61 226.58 409.18 226.82 409.61 227.25 409.18 227.49 409.61 227.91 409.18 228.16 409.61 228.58 409.18 228.82 409.61 229.25 409.18 229.49 409.61 229.91 409.18 230.16 409.61 230.58 409.18 230.82 409.61 231.25 409.18 231.49 409.61 231.91 409.18 232.16 409.61 232.58 409.18 232.82 409.61 233.25 409.18 233.49 409.61 233.92 409.18 234.16 409.61 234.58 409.18 234.83 409.61 235.25 409.18 235.49 409.61 235.92 409.18 236.16 409.61 236.58 409.18 236.83 409.61 237.25 409.18 237.5 409.61 237.92 409.18 238.16 409.61 238.59 409.18 238.83 409.61 239.25 409.18 239.5 409.61 239.92 409.18 240.16 409.61 240.59 409.18 240.83 409.61 241.25 409.18 241.5 409.61 241.92 409.18 242.16 409.61 242.59 409.18 242.83 409.61 243.26 409.18 243.5 409.61 243.92 409.18 244.17 409.61 244.59 409.18 244.83 409.61 245.26 409.18 245.5 409.61 245.92 409.18 246.17 409.61 246.59 409.18 246.84 409.61 247.26 409.18 247.5 409.61 247.93 409.18 248.17 409.61 248.59 409.18 248.84 409.61 249.26 409.18 249.5 409.61 249.93 409.18 250.17 409.61 250.59 409.18 250.84 409.61 251.26 409.18 251.5 409.61 251.93 409.18 252.17 409.61 252.59 409.18 252.84 409.61 253.26 409.18 253.51 409.61 253.93 409.18 254.17 409.61 254.6 409.18 254.84 409.61 255.26 409.18 255.51 409.61 255.93 409.18 256.18 409.61 256.6 409.18 256.84 409.61 257.26 409.18 257.51 409.61 257.93 409.18 258.18 409.61 258.6 409.18 258.84 409.61 259.27 409.18 259.51 409.61 259.93 409.18 260.18 409.61 260.6 409.18 260.84 409.61 261.27 409.18 261.51 409.61 261.94 409.18 262.18 409.61 262.6 409.18 262.85 409.61 263.27 409.18 263.51 409.61 263.94 409.18 264.18 409.61 264.6 409.18 264.85 409.61 265.27 409.18 265.51 409.61 265.94 409.18 266.18 409.61 266.61 409.18 266.85 409.61 267.27 409.18 267.52 409.61 267.94 409.18 268.18 409.61 268.61 409.18 268.85 409.61 269.27 409.18 269.52 409.61 269.94 409.18 270.18 409.61 270.61 409.18 270.85 409.61 271.27 409.18 271.52 409.61 271.94 409.18 272.19 409.61 272.61 409.18 272.85 409.61 273.28 409.18 273.52 409.61 273.94 409.18 274.19 409.61 274.61 409.18 274.85 409.61 275.28 409.18 275.52 409.61 275.94 409.18 276.19 409.61 276.61 409.18 276.86 409.61 277.28 409.18 277.52 409.61 277.95 409.18 278.19 409.61 278.61 409.18 278.86 409.61 279.28 409.18 279.52 409.61 279.95 409.18 280.19 409.61 280.62 409.18 280.86 409.61 281.28 409.18 281.52 409.61 281.95 409.18 282.19 409.61 282.62 409.18 141.43 160.11 300.2 0"/><path class="cls-2" d="M402.27,0H300.2L141.43,160.11,282.62,409.18l.24.43,18-18.24,26.73-27.13L326.22,243.5l74.72,2.67L428.85,391l.11.55,60-59.37V88.73ZM326.22,197.41V103.46l81.36,47Z"/><polygon class="cls-1" points="326.22 197.41 407.59 150.44 326.22 103.46 326.22 197.41"/></g></g></svg>