<svg xmlns="http://www.w3.org/2000/svg" viewBox="0 0 996 124.81"><defs><style>.cls-1,.cls-3{fill:#ed1c23;}.cls-2{fill:#fff;}.cls-3{font-size:90px;font-family:ProximaNova-Regular, Proxima Nova;}.cls-4{font-family:ProximaNova-Black, Proxima Nova;}</style></defs><title>Asset 3</title><g id="Layer_2" data-name="Layer 2"><g id="Layer_1-2" data-name="Layer 1"><polygon class="cls-1" points="99.4 74.19 99.81 110.99 91.66 119.25 91.68 119.32 91.85 119.15 91.88 119.32 92.05 119.15 92.08 119.32 92.25 119.15 92.29 119.32 92.46 119.15 92.49 119.32 92.66 119.15 92.69 119.32 92.86 119.15 92.9 119.32 93.07 119.15 93.1 119.32 93.27 119.15 93.3 119.32 93.47 119.15 93.51 119.32 93.68 119.15 93.71 119.32 93.88 119.15 93.91 119.32 94.08 119.15 94.12 119.32 94.29 119.15 94.32 119.32 94.49 119.15 94.52 119.32 94.69 119.15 94.73 119.32 94.9 119.15 94.93 119.32 95.1 119.15 95.13 119.32 95.3 119.15 95.34 119.32 95.51 119.15 95.54 119.32 95.71 119.15 95.74 119.32 95.91 119.15 95.94 119.32 96.12 119.15 96.15 119.32 96.32 119.15 96.35 119.32 96.52 119.15 96.56 119.32 96.73 119.15 96.76 119.32 96.93 119.15 96.96 119.32 97.13 119.15 97.17 119.32 97.34 119.15 97.37 119.32 97.54 119.15 97.57 119.32 97.74 119.15 97.78 119.32 97.95 119.15 97.98 119.32 98.15 119.15 98.18 119.32 98.35 119.15 98.39 119.32 98.56 119.15 98.59 119.32 98.76 119.15 98.79 119.32 98.96 119.15 99 119.32 99.17 119.15 99.2 119.32 99.37 119.15 99.4 119.32 99.57 119.15 99.6 119.32 99.78 119.15 99.81 119.32 99.98 119.15 100.01 119.32 100.18 119.15 100.21 119.32 100.39 119.15 100.42 119.32 100.59 119.15 100.62 119.32 100.79 119.15 100.82 119.32 101 119.15 101.03 119.32 101.2 119.15 101.23 119.32 101.4 119.15 101.43 119.32 101.61 119.15 101.64 119.32 101.81 119.15 101.84 119.32 102.01 119.15 102.04 119.32 102.21 119.15 102.25 119.32 102.42 119.15 102.45 119.32 102.62 119.15 102.65 119.32 102.82 119.15 102.86 119.32 103.03 119.15 103.06 119.32 103.23 119.15 103.26 119.32 103.43 119.15 103.47 119.32 103.64 119.15 103.67 119.32 103.84 119.15 103.87 119.32 104.04 119.15 104.08 119.32 104.25 119.15 104.28 119.32 104.45 119.15 104.48 119.32 104.65 119.15 104.69 119.32 104.86 119.15 104.89 119.32 105.06 119.15 105.09 119.32 105.26 119.15 105.3 119.32 105.47 119.15 105.5 119.32 105.67 119.15 105.7 119.32 105.87 119.15 105.91 119.32 106.08 119.15 106.11 119.32 106.28 119.15 106.31 119.32 106.48 119.15 106.52 119.32 106.69 119.15 106.72 119.32 106.89 119.15 106.92 119.32 107.09 119.15 107.13 119.32 107.3 119.15 107.33 119.32 107.5 119.15 107.53 119.32 107.7 119.15 107.73 119.32 107.91 119.15 107.94 119.32 108.11 119.15 108.14 119.32 108.31 119.15 108.34 119.32 108.52 119.15 108.55 119.32 108.72 119.15 108.75 119.32 108.92 119.15 108.95 119.32 109.13 119.15 109.16 119.32 109.33 119.15 109.36 119.32 109.53 119.15 109.56 119.32 109.74 119.15 109.77 119.32 109.94 119.15 109.97 119.32 110.14 119.15 110.17 119.32 110.34 119.15 110.38 119.32 110.55 119.15 110.58 119.32 110.75 119.15 110.78 119.32 110.95 119.15 110.99 119.32 111.16 119.15 111.19 119.32 111.36 119.15 111.39 119.32 111.56 119.15 111.6 119.32 111.77 119.15 111.8 119.32 111.97 119.15 112 119.32 112.17 119.15 112.21 119.32 112.38 119.15 112.41 119.32 112.58 119.15 112.61 119.32 112.78 119.15 112.82 119.32 112.99 119.15 113.02 119.32 113.19 119.15 113.22 119.32 113.39 119.15 113.43 119.32 113.6 119.15 113.63 119.32 113.8 119.15 113.83 119.32 114 119.15 114.04 119.32 114.21 119.15 114.24 119.32 114.41 119.15 114.44 119.32 114.61 119.15 114.65 119.32 114.82 119.15 114.85 119.32 115.02 119.15 115.05 119.32 115.22 119.15 115.26 119.32 115.43 119.15 115.46 119.32 115.63 119.15 115.66 119.32 115.83 119.15 115.87 119.32 116.04 119.15 116.07 119.32 116.24 119.15 116.27 119.32 116.44 119.15 116.48 119.32 116.65 119.15 116.68 119.32 116.85 119.15 116.88 119.32 117.05 119.15 117.09 119.32 117.26 119.15 117.29 119.32 117.46 119.15 117.49 119.32 117.66 119.15 117.7 119.32 117.87 119.15 117.9 119.32 118.07 119.15 118.1 119.32 118.27 119.15 118.31 119.32 118.48 119.15 118.51 119.32 118.68 119.15 118.71 119.32 118.88 119.15 118.92 119.32 119.09 119.15 119.12 119.32 119.29 119.15 119.32 119.32 119.49 119.15 119.53 119.32 119.7 119.15 119.73 119.32 119.9 119.15 119.93 119.32 120.1 119.15 120.14 119.32 120.31 119.15 120.34 119.32 120.51 119.15 120.54 119.32 120.71 119.15 120.75 119.32 120.92 119.15 120.95 119.32 121.12 119.15 121.15 119.32 121.32 119.15 121.36 119.32 121.53 119.15 121.56 119.32 121.73 119.15 121.76 119.32 121.93 119.15 121.97 119.32 122.14 119.15 122.17 119.32 122.34 119.15 122.37 119.32 122.54 119.15 122.57 119.32 122.75 119.15 122.78 119.32 122.95 119.15 122.98 119.32 123.15 119.15 123.18 119.32 123.36 119.15 123.39 119.32 123.56 119.15 123.59 119.32 123.76 119.15 123.79 119.32 123.97 119.15 124 119.32 124.17 119.15 124.2 119.32 124.37 119.15 124.4 119.32 124.58 119.15 124.61 119.32 124.78 119.15 124.81 119.32 124.98 119.15 125.01 119.32 125.18 119.15 125.22 119.32 125.39 119.15 125.42 119.32 125.59 119.15 125.62 119.32 125.79 119.15 125.83 119.32 126 119.15 126.03 119.32 126.2 119.15 126.23 119.32 126.4 119.15 126.44 119.32 126.61 119.15 126.64 119.32 126.81 119.15 126.84 119.32 127.01 119.15 127.05 119.32 127.22 119.15 127.25 119.32 127.42 119.15 127.45 119.32 127.62 119.15 127.66 119.32 127.83 119.15 127.86 119.32 128.03 119.15 128.06 119.32 128.23 119.15 128.27 119.32 128.44 119.15 128.47 119.32 128.64 119.15 128.67 119.32 128.84 119.15 128.88 119.32 129.05 119.15 129.08 119.32 129.25 119.15 129.28 119.32 129.45 119.15 129.49 119.32 129.66 119.15 129.69 119.32 129.86 119.15 129.89 119.32 130.06 119.15 130.09 119.32 130.27 119.15 130.3 119.32 130.47 119.15 130.5 119.32 130.67 119.15 122.17 75.01 99.4 74.19"/><polygon class="cls-1" points="91.47 0 91.27 0 91.07 0 90.86 0 90.66 0 90.46 0 90.25 0 90.05 0 89.85 0 89.64 0 89.44 0 89.24 0 89.03 0 88.83 0 88.63 0 88.42 0 88.22 0 88.02 0 87.81 0 87.61 0 87.41 0 87.2 0 87 0 86.8 0 86.59 0 86.39 0 86.19 0 85.98 0 85.78 0 85.58 0 85.38 0 85.17 0 84.97 0 84.77 0 84.56 0 84.36 0 84.16 0 83.95 0 83.75 0 83.55 0 83.34 0 83.14 0 82.94 0 82.73 0 82.53 0 82.33 0 82.12 0 81.92 0 81.72 0 81.51 0 81.31 0 81.11 0 80.9 0 80.7 0 80.5 0 80.29 0 80.09 0 79.89 0 79.68 0 79.48 0 79.28 0 79.07 0 78.87 0 78.67 0 78.46 0 78.26 0 78.06 0 77.85 0 77.65 0 77.45 0 77.24 0 77.04 0 76.84 0 76.63 0 76.43 0 76.23 0 76.03 0 75.82 0 75.62 0 75.42 0 75.21 0 75.01 0 74.81 0 74.6 0 74.4 0 74.19 0 73.99 0 73.79 0 73.58 0 73.38 0 73.18 0 72.97 0 72.77 0 72.57 0 72.37 0 72.16 0 71.96 0 71.76 0 71.55 0 71.35 0 71.15 0 70.94 0 70.74 0 70.54 0 70.33 0 70.13 0 69.93 0 69.72 0 69.52 0 69.32 0 69.11 0 68.91 0 68.71 0 68.5 0 68.3 0 68.1 0 67.89 0 67.69 0 67.49 0 67.28 0 67.08 0 66.88 0 66.67 0 66.47 0 66.27 0 66.06 0 65.86 0 65.66 0 65.45 0 65.25 0 65.05 0 64.84 0 64.64 0 64.44 0 64.23 0 64.03 0 63.83 0 63.63 0 63.42 0 63.22 0 63.02 0 62.81 0 62.61 0 62.41 0 62.2 0 62 0 61.8 0 61.59 0 61.39 0 61.19 0 60.98 0 60.78 0 60.58 0 60.37 0 60.17 0 59.97 0 59.76 0 59.56 0 59.36 0 59.15 0 58.95 0 58.75 0 58.54 0 58.34 0 58.14 0 57.93 0 57.73 0 57.53 0 57.32 0 57.12 0 56.92 0 56.71 0 56.51 0 56.31 0 56.1 0 55.9 0 55.7 0 55.49 0 55.29 0 55.09 0 54.88 0 54.68 0 54.48 0 54.27 0 54.07 0 53.87 0 53.66 0 53.46 0 53.26 0 53.05 0 52.85 0 52.65 0 52.45 0 52.24 0 52.04 0 51.84 0 51.63 0 51.43 0 51.23 0 51.02 0 50.82 0 50.62 0 50.41 0 50.21 0 50.01 0 49.8 0 49.6 0 49.4 0 49.19 0 48.99 0 48.79 0 48.58 0 48.38 0 0 48.79 43.09 124.81 43.22 124.68 43.3 124.81 43.43 124.68 43.5 124.81 43.63 124.68 43.7 124.81 43.83 124.68 43.91 124.81 44.04 124.68 44.11 124.81 44.24 124.68 44.31 124.81 44.44 124.68 44.52 124.81 44.65 124.68 44.72 124.81 44.85 124.68 44.92 124.81 45.05 124.68 45.13 124.81 45.26 124.68 45.33 124.81 45.46 124.68 45.53 124.81 45.66 124.68 45.74 124.81 45.87 124.68 45.94 124.81 46.07 124.68 46.14 124.81 46.27 124.68 46.35 124.81 46.48 124.68 46.55 124.81 46.68 124.68 46.75 124.81 46.88 124.68 46.96 124.81 47.09 124.68 47.16 124.81 47.29 124.68 47.36 124.81 47.49 124.68 47.57 124.81 47.7 124.68 47.77 124.81 47.9 124.68 47.97 124.81 48.1 124.68 48.18 124.81 48.3 124.68 48.38 124.81 48.51 124.68 48.58 124.81 48.71 124.68 48.79 124.81 48.91 124.68 48.99 124.81 49.12 124.68 49.19 124.81 49.32 124.68 49.4 124.81 49.52 124.68 49.6 124.81 49.73 124.68 49.8 124.81 49.93 124.68 50.01 124.81 50.13 124.68 50.21 124.81 50.34 124.68 50.41 124.81 50.54 124.68 50.62 124.81 50.74 124.68 50.82 124.81 50.95 124.68 51.02 124.81 51.15 124.68 51.23 124.81 51.35 124.68 51.43 124.81 51.56 124.68 51.63 124.81 51.76 124.68 51.84 124.81 51.96 124.68 52.04 124.81 52.17 124.68 52.24 124.81 52.37 124.68 52.45 124.81 52.57 124.68 52.65 124.81 52.78 124.68 52.85 124.81 52.98 124.68 53.05 124.81 53.18 124.68 53.26 124.81 53.39 124.68 53.46 124.81 53.59 124.68 53.66 124.81 53.79 124.68 53.87 124.81 54 124.68 54.07 124.81 54.2 124.68 54.27 124.81 54.4 124.68 54.48 124.81 54.61 124.68 54.68 124.81 54.81 124.68 54.88 124.81 55.01 124.68 55.09 124.81 55.22 124.68 55.29 124.81 55.42 124.68 55.49 124.81 55.62 124.68 55.7 124.81 55.83 124.68 55.9 124.81 56.03 124.68 56.1 124.81 56.23 124.68 56.31 124.81 56.44 124.68 56.51 124.81 56.64 124.68 56.71 124.81 56.84 124.68 56.92 124.81 57.05 124.68 57.12 124.81 57.25 124.68 57.32 124.81 57.45 124.68 57.53 124.81 57.66 124.68 57.73 124.81 57.86 124.68 57.93 124.81 58.06 124.68 58.14 124.81 58.27 124.68 58.34 124.81 58.47 124.68 58.54 124.81 58.67 124.68 58.75 124.81 58.88 124.68 58.95 124.81 59.08 124.68 59.15 124.81 59.28 124.68 59.36 124.81 59.48 124.68 59.56 124.81 59.69 124.68 59.76 124.81 59.89 124.68 59.97 124.81 60.09 124.68 60.17 124.81 60.3 124.68 60.37 124.81 60.5 124.68 60.58 124.81 60.7 124.68 60.78 124.81 60.91 124.68 60.98 124.81 61.11 124.68 61.19 124.81 61.31 124.68 61.39 124.81 61.52 124.68 61.59 124.81 61.72 124.68 61.8 124.81 61.92 124.68 62 124.81 62.13 124.68 62.2 124.81 62.33 124.68 62.41 124.81 62.53 124.68 62.61 124.81 62.74 124.68 62.81 124.81 62.94 124.68 63.02 124.81 63.14 124.68 63.22 124.81 63.35 124.68 63.42 124.81 63.55 124.68 63.63 124.81 63.75 124.68 63.83 124.81 63.96 124.68 64.03 124.81 64.16 124.68 64.23 124.81 64.36 124.68 64.44 124.81 64.57 124.68 64.64 124.81 64.77 124.68 64.84 124.81 64.97 124.68 65.05 124.81 65.18 124.68 65.25 124.81 65.38 124.68 65.45 124.81 65.58 124.68 65.66 124.81 65.79 124.68 65.86 124.81 65.99 124.68 66.06 124.81 66.19 124.68 66.27 124.81 66.4 124.68 66.47 124.81 66.6 124.68 66.67 124.81 66.8 124.68 66.88 124.81 67.01 124.68 67.08 124.81 67.21 124.68 67.28 124.81 67.41 124.68 67.49 124.81 67.62 124.68 67.69 124.81 67.82 124.68 67.89 124.81 68.02 124.68 68.1 124.81 68.23 124.68 68.3 124.81 68.43 124.68 68.5 124.81 68.63 124.68 68.71 124.81 68.84 124.68 68.91 124.81 69.04 124.68 69.11 124.81 69.24 124.68 69.32 124.81 69.45 124.68 69.52 124.81 69.65 124.68 69.72 124.81 69.85 124.68 69.93 124.81 70.06 124.68 70.13 124.81 70.26 124.68 70.33 124.81 70.46 124.68 70.54 124.81 70.67 124.68 70.74 124.81 70.87 124.68 70.94 124.81 71.07 124.68 71.15 124.81 71.28 124.68 71.35 124.81 71.48 124.68 71.55 124.81 71.68 124.68 71.76 124.81 71.89 124.68 71.96 124.81 72.09 124.68 72.16 124.81 72.29 124.68 72.37 124.81 72.5 124.68 72.57 124.81 72.7 124.68 72.77 124.81 72.9 124.68 72.97 124.81 73.1 124.68 73.18 124.81 73.31 124.68 73.38 124.81 73.51 124.68 73.58 124.81 73.71 124.68 73.79 124.81 73.92 124.68 73.99 124.81 74.12 124.68 74.19 124.81 74.32 124.68 74.4 124.81 74.53 124.68 74.6 124.81 74.73 124.68 74.81 124.81 74.93 124.68 75.01 124.81 75.14 124.68 75.21 124.81 75.34 124.68 75.42 124.81 75.54 124.68 75.62 124.81 75.75 124.68 75.82 124.81 75.95 124.68 76.03 124.81 76.15 124.68 76.23 124.81 76.36 124.68 76.43 124.81 76.56 124.68 76.63 124.81 76.76 124.68 76.84 124.81 76.97 124.68 77.04 124.81 77.17 124.68 77.24 124.81 77.37 124.68 77.45 124.81 77.58 124.68 77.65 124.81 77.78 124.68 77.85 124.81 77.98 124.68 78.06 124.81 78.19 124.68 78.26 124.81 78.39 124.68 78.46 124.81 78.59 124.68 78.67 124.81 78.8 124.68 78.87 124.81 79 124.68 79.07 124.81 79.2 124.68 79.28 124.81 79.41 124.68 79.48 124.81 79.61 124.68 79.68 124.81 79.81 124.68 79.89 124.81 80.02 124.68 80.09 124.81 80.22 124.68 80.29 124.81 80.42 124.68 80.5 124.81 80.63 124.68 80.7 124.81 80.83 124.68 80.9 124.81 81.03 124.68 81.11 124.81 81.23 124.68 81.31 124.81 81.44 124.68 81.51 124.81 81.64 124.68 81.72 124.81 81.84 124.68 81.92 124.81 82.05 124.68 82.12 124.81 82.25 124.68 82.33 124.81 82.45 124.68 82.53 124.81 82.66 124.68 82.73 124.81 82.86 124.68 82.94 124.81 83.06 124.68 83.14 124.81 83.27 124.68 83.34 124.81 83.47 124.68 83.55 124.81 83.67 124.68 83.75 124.81 83.88 124.68 83.95 124.81 84.08 124.68 84.16 124.81 84.28 124.68 84.36 124.81 84.49 124.68 84.56 124.81 84.69 124.68 84.77 124.81 84.89 124.68 84.97 124.81 85.1 124.68 85.17 124.81 85.3 124.68 85.38 124.81 85.5 124.68 85.58 124.81 85.71 124.68 85.78 124.81 85.91 124.68 85.98 124.81 86.11 124.68 43.09 48.79 91.47 0"/><path class="cls-2" d="M122.57,0H91.47L43.09,48.79l43,75.89.07.13,5.48-5.56L99.81,111,99.4,74.2l22.77.81,8.5,44.14,0,.17L149,101.23V27ZM99.4,60.15V31.53l24.79,14.31Z"/><polygon class="cls-1" points="99.4 60.15 124.19 45.84 99.4 31.52 99.4 60.15"/><text class="cls-3" transform="translate(158 88.43)">cnapps <tspan class="cls-4" x="309.81" y="0">for brands</tspan></text></g></g></svg>